<svg xmlns="http://www.w3.org/2000/svg" viewBox="0 0 559 418.61"><title>tvmc</title><g id="Layer_2" data-name="Layer 2"><g id="Layer_1-2" data-name="Layer 1"><g id="Layer_1-2-2" data-name="Layer 1-2"><path d="M0,208c0,47.06,12.37,103.18,35,144,21.94,39.58,39.31,47.87,80,56.23,65.14,13.38,145,10,165,10s94.86,2.38,160-11c40.69-8.36,59.06-15.65,81-55.23,22.63-40.82,38-85.77,38-144.77,0,0,0-60-22-111-17.93-41.56-37-73-86-84C396.81.06,307,.23,284,.23c-19,0-106.17-2.73-171.31,10.64C72,19.23,56.94,24.65,35,64.23c-22.63,40.82-35,96.94-35,144"/></g></g></g></svg>