<svg xmlns="http://www.w3.org/2000/svg" viewBox="0 0 895.18 807.16"><title>tvtamu</title><g id="Layer_2" data-name="Layer 2"><g id="Layer_1-2" data-name="Layer 1"><g id="Layer_1-2-2" data-name="Layer 1-2"><path d="M895.18,414.16c0-69.82-7-179-61-273C757.91,9.32,663.11,5.16,569.11,2.16c-59.28-3-121.48-2-123-2s-63.69-1-123,2c-94,3-186,8-263,139-64.78,110.21-60.1,269-60,273C0,417.3-4.76,555.63,60.11,666c77,131,169,136,263,139,60,3,122.93,2,122.93,2s63,.33,123-2c99.07-3.84,185.07-3.84,262.07-134.84C896.8,558.5,895.18,414.16,895.18,414.16Z"/></g></g></g></svg>